<?xml version="1.0" standalone="no"?>
<!DOCTYPE svg PUBLIC "-//W3C//DTD SVG 20010904//EN"
 "http://www.w3.org/TR/2001/REC-SVG-20010904/DTD/svg10.dtd">
<svg version="1.0" xmlns="http://www.w3.org/2000/svg"
 width="1153.000000pt" height="1153.000000pt" viewBox="0 0 1153.000000 1153.000000"
 preserveAspectRatio="xMidYMid meet">
<metadata>
Created by potrace 1.14, written by Peter Selinger 2001-2017
</metadata>
<g transform="translate(0.000000,1153.000000) scale(0.100000,-0.100000)"
fill="#000000" stroke="none">
<path d="M4955 9912 c-14 -2 -43 -44 -96 -140 -42 -75 -145 -258 -229 -407
-84 -148 -215 -382 -293 -520 -77 -137 -145 -258 -152 -267 -8 -13 -11 18 -10
133 l1 149 -1497 0 -1497 0 0 -730 1 -730 283 0 284 0 0 -1169 0 -1169 -270 1
-270 2 0 -722 c0 -571 3 -723 13 -724 6 0 136 0 288 0 l275 1 18 -78 c89 -380
310 -706 646 -957 321 -238 644 -414 1000 -541 205 -74 507 -156 690 -188 14
-2 36 -7 50 -10 14 -3 39 -7 55 -10 17 -2 59 -9 95 -15 36 -6 85 -13 109 -16
23 -3 55 -7 70 -9 14 -3 51 -7 81 -11 30 -3 72 -8 93 -11 21 -3 61 -7 90 -9
48 -3 130 -10 252 -20 318 -27 1195 -27 1570 0 166 12 214 16 245 20 20 3 60
7 90 10 54 4 129 13 180 20 14 2 45 7 70 10 84 12 230 35 242 40 7 2 29 6 48
9 64 9 264 55 375 86 61 17 117 32 126 35 9 2 63 19 120 38 478 160 1010 466
1253 721 141 148 230 289 344 546 23 53 89 256 97 304 l7 33 241 1 c133 1 275
1 315 2 l72 0 -2 721 -3 722 -267 -1 -268 0 0 76 c-1 98 -1 2104 0 2195 l0 67
283 0 282 0 0 730 0 730 -1497 0 -1496 0 1 -132 c1 -73 -3 -135 -8 -136 -5 -2
-30 34 -55 80 -49 88 -61 109 -297 528 -82 146 -203 360 -267 475 -65 116
-125 216 -132 224 -11 12 -146 14 -871 15 -472 1 -867 0 -878 -2z m1812 -296
c65 -116 132 -235 149 -265 17 -31 40 -72 51 -91 51 -90 193 -341 220 -390 17
-30 106 -188 197 -350 l166 -294 0 272 c0 252 1 272 18 273 22 1 2762 1 2783
0 16 -1 17 -54 15 -643 l-1 -641 -283 0 -282 0 2 -1256 3 -1256 268 0 c260 0
267 0 268 -20 1 -26 1 -1204 0 -1230 -1 -20 -8 -20 -303 -20 l-301 0 -8 -25
c-4 -14 -19 -70 -34 -125 -109 -398 -306 -708 -578 -910 -129 -95 -112 -84
-181 -129 -371 -242 -773 -414 -1221 -521 -171 -40 -363 -79 -450 -90 -22 -3
-49 -7 -61 -9 -12 -2 -45 -7 -75 -11 -30 -3 -65 -8 -79 -10 -24 -4 -76 -9
-190 -20 -30 -3 -73 -7 -96 -10 -37 -3 -96 -7 -299 -20 -594 -37 -1472 -10
-1955 60 -14 2 -45 7 -70 10 -71 9 -219 35 -292 51 -37 7 -80 16 -95 19 -16 2
-43 9 -60 14 -18 5 -33 8 -33 6 0 -3 -11 0 -26 5 -14 6 -39 12 -57 15 -147 26
-533 165 -755 272 -205 100 -496 280 -657 408 -303 240 -489 528 -574 886 -12
48 -21 96 -21 108 0 11 -3 22 -7 22 -5 1 -134 2 -287 3 l-279 1 0 635 -1 635
270 0 269 0 0 1255 0 1255 -280 1 -280 1 0 643 0 643 1375 -1 c756 0 1389 -1
1407 -1 l32 -1 0 -266 c0 -147 2 -268 3 -269 2 -1 95 162 208 362 279 497 293
522 320 568 12 22 35 63 50 90 15 28 63 113 108 191 92 160 153 270 184 331
12 23 28 44 37 45 8 2 383 3 832 3 l818 0 118 -209z"/>
<path d="M5165 9570 c-22 -4 -36 -18 -60 -60 -81 -141 -211 -371 -242 -430
-20 -36 -39 -69 -43 -75 -4 -5 -39 -66 -77 -135 -66 -118 -86 -153 -150 -267
-14 -27 -49 -88 -78 -138 -28 -49 -67 -117 -85 -150 -18 -33 -71 -127 -118
-210 -47 -82 -185 -328 -307 -545 -123 -217 -262 -465 -310 -550 -121 -213
-119 -210 -195 -345 -37 -66 -78 -138 -90 -160 -12 -22 -73 -130 -135 -240
-62 -110 -199 -353 -305 -540 -105 -187 -276 -490 -378 -672 l-187 -333 -427
0 -426 0 0 -380 0 -380 1589 0 1589 0 0 389 0 389 -456 0 c-251 0 -458 3 -461
6 -3 3 4 20 15 38 11 18 31 53 44 78 14 25 143 254 287 510 l262 465 1442 -1
c793 -1 1445 -2 1450 -3 4 0 7 -5 7 -10 0 -5 34 -68 75 -141 41 -73 75 -134
75 -136 0 -2 39 -72 86 -156 48 -84 101 -180 119 -213 17 -33 80 -146 138
-252 59 -106 107 -194 107 -197 0 -4 -227 -6 -505 -6 l-504 0 0 -380 1 -380
1588 0 1588 0 0 380 0 380 -427 0 -426 0 -65 117 c-36 65 -97 174 -136 243
-155 272 -248 438 -276 490 -17 30 -34 60 -38 65 -4 6 -21 35 -37 65 -16 30
-81 145 -143 255 -62 110 -124 220 -138 245 -14 25 -54 97 -90 160 -36 63 -79
140 -95 170 -16 30 -33 60 -37 65 -4 6 -22 37 -40 70 -18 33 -79 141 -135 240
-56 99 -113 200 -127 225 -14 25 -76 135 -138 245 -62 110 -126 225 -143 255
-16 30 -33 60 -37 65 -4 6 -50 87 -103 180 -120 214 -110 197 -264 470 -71
127 -145 257 -163 290 -18 33 -66 117 -107 188 -40 70 -73 130 -73 132 0 3
-11 22 -23 43 -13 20 -35 57 -49 82 -14 25 -35 63 -48 85 -12 22 -65 117 -118
210 -52 94 -101 176 -108 184 -11 12 -115 15 -662 15 -356 1 -661 -1 -677 -4z
m1059 -1825 c35 -60 76 -132 91 -160 16 -27 72 -127 125 -221 54 -93 109 -190
122 -215 14 -24 72 -125 128 -224 127 -223 160 -281 160 -289 0 -3 -450 -6
-1000 -6 l-999 0 51 88 c28 48 60 103 70 122 73 128 449 778 484 838 24 40 44
74 44 76 0 2 30 55 66 117 37 63 100 173 142 244 41 72 92 161 114 198 l40 69
149 -264 c83 -144 179 -312 213 -373z"/>
<path d="M5847 7848 c-14 -22 -104 -176 -145 -248 -11 -19 -95 -165 -187 -325
-92 -159 -176 -307 -187 -328 -11 -20 -24 -40 -29 -43 -5 -3 -7 -9 -5 -12 7
-12 1121 -8 1119 3 -1 6 -65 120 -142 255 -76 135 -148 262 -160 283 -45 80
-65 116 -123 216 -33 57 -74 129 -90 160 -17 31 -32 58 -34 59 -1 2 -9 -7 -17
-20z m203 -488 c95 -168 183 -324 197 -347 l25 -43 -416 0 -415 0 143 248 c78
136 171 297 207 359 48 85 67 109 75 100 7 -7 89 -149 184 -317z"/>
<path d="M1529 8517 c-1 -1 -2 -176 -3 -389 l-1 -388 282 0 c263 0 283 -1 283
-17 1 -10 2 -632 3 -1383 l2 -1364 80 -1 80 0 83 143 c45 80 82 146 82 147 0
2 31 56 68 121 38 66 82 144 99 174 16 30 89 159 160 285 140 246 152 268 203
360 18 33 41 74 50 90 10 17 58 102 107 190 l90 160 -1 562 c-1 368 2 564 9
566 5 2 148 3 318 2 l307 0 0 372 0 372 -1150 0 c-632 0 -1151 -1 -1151 -2z"/>
<path d="M7809 8517 c-1 -1 -2 -167 -3 -369 -1 -241 2 -368 9 -369 5 -1 149
-2 319 -3 l309 -1 1 -570 1 -570 131 -230 c143 -251 155 -272 255 -451 37 -67
79 -140 93 -163 14 -22 26 -43 26 -45 0 -2 24 -46 54 -98 29 -51 64 -113 78
-138 114 -204 291 -517 298 -526 7 -8 131 -12 160 -5 3 0 5 616 4 1369 0 752
2 1373 4 1380 3 9 69 12 283 12 179 0 279 4 280 10 0 6 0 163 0 350 0 187 0
358 0 379 l-1 40 -1150 0 c-632 -1 -1151 -1 -1151 -2z"/>
<path d="M3387 7523 c-3 -7 -2 -416 2 -435 0 -4 16 -11 34 -16 l32 -9 113 225
c61 124 112 229 112 234 0 10 -287 11 -293 1z m169 -75 c1 -2 -19 -48 -47
-103 l-49 -100 0 102 c0 68 4 103 12 105 12 4 79 1 84 -4z"/>
<path d="M7970 7525 c0 -14 228 -464 233 -459 5 5 31 12 53 13 9 1 12 64 12
226 l0 225 -149 0 c-82 0 -149 -2 -149 -5z m220 -174 l0 -96 -28 50 c-15 28
-37 72 -49 97 -25 52 -21 57 45 50 l32 -4 0 -97z"/>
<path d="M4605 5582 l-40 -3 -160 -286 c-88 -157 -161 -289 -163 -294 -2 -5
156 -9 367 -9 346 0 371 -1 372 -17 4 -93 0 -1253 -4 -1259 -3 -5 -268 -9
-606 -9 -331 0 -601 -2 -601 -5 0 -7 99 -65 213 -125 176 -91 403 -175 567
-210 8 -2 35 -8 60 -14 86 -19 272 -49 345 -56 112 -9 195 -17 225 -20 212
-23 1059 -24 1275 0 22 2 69 6 105 10 142 12 223 22 338 41 244 40 491 119
697 221 135 67 275 145 275 152 0 4 -272 6 -605 6 l-605 0 -1 30 c0 16 -1 302
-1 635 l-1 605 417 0 c229 0 416 3 416 7 0 4 -13 30 -30 58 -16 28 -30 52 -30
54 0 2 -25 48 -56 102 -31 55 -71 126 -89 159 -18 33 -50 89 -70 125 -20 36
-39 73 -42 83 -3 9 -13 17 -22 18 -71 2 -2515 3 -2546 1z m2575 -222 c95 -168
160 -289 160 -294 0 -2 -165 -4 -367 -4 -203 -1 -376 -1 -385 -1 -17 -1 -18
-42 -18 -721 0 -569 3 -720 13 -720 6 0 224 -1 482 -1 l470 -1 -75 -35 c-78
-37 -313 -118 -365 -126 -16 -3 -59 -12 -95 -20 -36 -9 -83 -18 -105 -21 -23
-4 -52 -9 -65 -11 -14 -3 -45 -8 -70 -11 -25 -3 -56 -7 -70 -9 -14 -2 -54 -7
-90 -10 -36 -3 -83 -8 -105 -10 -274 -26 -1068 -26 -1340 0 -27 3 -77 7 -110
10 -56 5 -193 22 -240 29 -24 4 -181 34 -210 40 -133 27 -475 148 -475 168 0
3 208 6 463 6 254 0 468 1 475 1 9 1 12 154 12 730 l0 730 -336 -1 c-184 0
-337 2 -339 4 -4 4 203 376 222 399 10 12 200 14 1250 14 l1238 0 75 -135z"/>
<path d="M2124 3699 c-6 -10 44 -186 76 -267 62 -155 151 -289 273 -414 247
-252 734 -536 1171 -682 170 -57 495 -139 640 -160 21 -4 48 -8 60 -11 12 -2
39 -7 61 -10 22 -3 70 -10 108 -15 64 -10 105 -14 207 -25 25 -3 65 -7 90 -10
410 -44 1304 -54 1760 -20 19 1 82 6 139 10 57 4 111 8 120 10 9 1 52 6 96 10
44 4 88 9 99 11 10 2 44 6 75 9 31 4 63 8 71 10 8 2 38 7 65 10 28 4 57 8 65
10 8 2 31 7 50 10 31 5 248 50 292 60 347 79 732 234 1028 412 379 229 595
433 719 681 48 94 108 265 117 330 l6 47 -624 0 -623 0 -71 -71 c-192 -192
-672 -430 -1026 -510 -10 -2 -28 -6 -40 -10 -22 -5 -43 -9 -90 -18 -13 -3 -46
-9 -75 -15 -29 -6 -74 -13 -100 -16 -26 -3 -59 -8 -73 -10 -88 -15 -242 -29
-443 -42 -160 -9 -909 -10 -1062 0 -124 8 -213 15 -265 22 -19 3 -61 7 -93 10
-58 5 -111 12 -157 20 -14 3 -41 7 -60 10 -299 46 -584 142 -880 297 -179 93
-288 167 -382 258 l-78 75 -621 0 c-341 0 -622 -3 -625 -6z"/>
<path d="M9990 3101 c-135 -44 -196 -165 -149 -296 53 -146 233 -191 365 -90
109 83 94 283 -28 358 -49 31 -140 44 -188 28z m164 -62 c70 -47 95 -132 66
-218 -35 -103 -143 -149 -245 -102 -50 23 -70 45 -90 100 -25 72 -14 136 33
189 59 66 165 80 236 31z"/>
<path d="M9966 3011 c-1 -3 -2 -62 -2 -131 1 -118 2 -125 21 -125 17 0 21 8
25 56 4 47 8 56 23 53 11 -1 20 -4 21 -6 1 -2 17 -27 35 -55 31 -49 53 -64 65
-45 3 5 -8 28 -25 53 -35 52 -35 56 -8 64 44 14 48 104 6 127 -22 12 -156 19
-161 9z m137 -46 c18 -18 11 -53 -12 -59 -9 -2 -31 -4 -48 -4 -32 -1 -33 1
-33 39 0 39 0 39 39 39 22 0 46 -7 54 -15z"/>
</g>
</svg>
